<svg width="186" height="189" viewBox="0 0 186 189" fill="none" xmlns="http://www.w3.org/2000/svg">
<path d="M118.653 85.4759C119.147 87.061 119.789 88.6964 120.141 90.3922C120.38 91.5295 120.206 92.7548 120.223 93.9398C120.243 95.2985 120.303 96.6571 120.29 98.0133C120.275 99.704 120.199 101.395 120.166 103.086C120.141 104.326 120.129 105.566 120.146 106.807C120.164 108.03 120.256 109.255 120.268 110.478C120.285 112.347 120.273 114.216 120.253 116.086C120.236 117.807 120.179 119.53 120.159 121.251C120.139 122.995 120.146 124.736 120.141 126.48C120.139 127.778 120.114 129.076 120.134 130.372C120.156 131.67 120.268 132.966 120.256 134.264C120.243 135.512 120.077 136.758 120.067 138.005C120.057 139.246 120.151 140.486 120.208 141.727C120.238 142.358 120.31 142.987 120.318 143.616C120.337 145.111 120.39 146.61 120.325 148.102C120.248 149.863 119.948 151.622 119.948 153.381C119.948 155.145 120.308 156.911 120.305 158.675C120.303 160.433 119.881 162.2 119.955 163.948C120.012 165.289 119.42 166.547 119.405 167.604C119.382 169.229 118.296 169.632 117.748 170.608C117.43 171.174 117.524 172.022 117.135 172.49C116.264 173.539 115.352 174.931 114.196 175.27C112.39 175.801 111.561 177.394 110.105 178.174C108.669 178.941 107.094 179.442 105.608 180.119C104.435 180.652 103.328 181.352 102.14 181.84C101.059 182.282 99.9027 182.537 98.779 182.879C97.7992 183.178 96.8293 183.518 95.8395 183.782C94.0635 184.253 92.2775 184.688 90.4939 185.121C88.956 185.495 87.423 185.916 85.8652 186.195C84.429 186.452 82.963 186.527 81.5144 186.721C80.1476 186.904 78.7932 187.196 77.4215 187.342C75.4321 187.551 73.4327 187.662 71.4384 187.83C69.5407 187.991 67.6481 188.253 65.748 188.326C63.2526 188.422 60.7497 188.434 58.2518 188.369C55.5629 188.298 52.8715 188.172 50.1949 187.926C46.68 187.601 43.18 187.116 39.6725 186.736C32.1614 185.921 24.9107 184.029 17.8511 181.339C12.5303 179.314 7.65601 176.584 3.80372 172.226C1.45216 169.564 0.152353 166.492 0.152353 162.879C0.157314 140.305 0.464903 117.724 0.00600154 95.1576C-0.18004 85.954 3.96744 80.4866 11.3024 76.4384C18.9549 72.214 27.2399 70.0452 35.7408 68.5758C36.9513 68.367 37.2366 68.0575 36.8818 66.8272C32.717 52.4204 43.6562 37.0047 58.4849 36.3782C59.5913 36.3304 60.0278 36.0033 60.2387 34.851C62.6349 21.7501 73.021 12.5968 86.1579 12.0785C90.3401 11.9124 94.371 12.871 98.1489 14.7203C99.0791 15.1757 99.5529 15.0524 100.19 14.2322C106.146 6.55328 113.873 1.80806 123.416 0.406632C134.209 -1.17846 143.741 1.91373 152.103 8.9284C155.569 11.8344 158.277 15.4097 160.416 19.3422C161.782 21.8532 162.536 24.724 163.432 27.4765C164.012 29.2604 164.409 31.1122 164.771 32.9564C164.913 33.6685 164.68 34.4484 164.717 35.1907C164.762 36.0788 165.198 36.6575 166.138 36.8512C169.373 37.5155 172.387 38.7206 175.063 40.7209C178.154 43.0306 180.947 45.6146 182.537 49.2628C183.485 51.4391 184.544 53.5979 185.181 55.8724C185.633 57.4776 185.452 59.264 185.576 60.9648C185.63 61.7121 185.861 62.4644 185.807 63.199C185.742 64.0595 185.447 64.8999 185.268 65.7528C185.047 66.8146 184.844 67.8789 184.638 68.9406C184.616 69.0614 184.653 69.2073 184.599 69.3054C183.887 70.6062 183.167 71.902 182.44 73.1952C181.984 74.0079 181.587 74.8734 181.036 75.6131C179.61 77.5278 178.268 79.5608 175.812 80.3206C175.48 80.4238 175.19 80.6905 174.9 80.9068C173.972 81.6038 173.446 83.0505 171.873 82.5599C171.784 82.5322 171.615 82.7435 171.496 82.8568C170.276 84.0015 168.733 84.2078 167.18 84.4544C165.781 84.6758 164.412 85.1337 163.008 85.2973C161.758 85.4432 160.448 85.1614 159.22 85.3854C158.342 85.5464 157.422 86.0873 156.764 86.7188C155.762 87.68 155.819 89.0084 155.951 90.357C156.072 91.5823 155.891 92.8353 155.874 94.0782C155.856 95.3085 155.856 96.5389 155.881 97.7692C155.906 98.9945 155.988 100.22 156.013 101.445C156.04 102.801 156.042 104.157 156.04 105.514C156.037 106.689 155.998 107.864 156 109.038C156.003 110.586 155.856 112.168 156.134 113.665C156.231 114.194 157.37 114.851 158.059 114.883C161.066 115.029 164.084 114.994 167.096 114.949C167.431 114.944 167.875 114.511 168.071 114.161C171.915 107.32 180.168 107.041 184.179 113.764C185.144 115.381 185.581 117.427 185.829 119.334C185.95 120.275 185.055 121.332 184.69 122.363C184.507 122.884 184.675 123.652 184.355 123.976C183.346 125.005 182.77 126.595 180.836 126.522C179.995 126.49 179.161 127.458 178.261 127.614C174.391 128.291 171.211 126.769 169.199 123.551C167.904 121.48 166.287 121.767 164.523 121.712C161.485 121.616 158.411 122.202 155.437 120.99C151.952 119.568 149.34 115.849 149.338 112.02C149.328 104.062 149.325 96.1036 149.355 88.1454C149.375 82.5498 153.195 78.6172 158.736 78.6801C164.097 78.743 168.919 77.4599 173.084 73.8771C180.766 67.27 181.225 55.0949 174.012 47.9872C170.474 44.5025 166.188 43.0658 161.333 43.1488C160.746 43.1589 160.051 43.3778 159.597 43.1363C158.848 42.7362 157.938 42.4494 158.076 41.0857C158.952 32.5111 157.382 24.5378 151.873 17.7169C146.631 11.2281 139.835 7.57478 131.574 6.93823C129.096 6.74701 126.561 6.78727 124.098 7.09171C122.404 7.30305 120.796 8.1736 119.137 8.71454C117.835 9.13975 116.51 9.48444 115.213 9.92223C114.927 10.0178 114.744 10.3927 114.468 10.5613C113.384 11.2255 112.278 11.852 111.192 12.5137C110.914 12.6823 110.666 12.9138 110.433 13.1453C108.79 14.7933 107.186 16.484 105.501 18.0842C104.859 18.6956 104.923 19.068 105.432 19.7196C107.347 22.1803 109.373 24.5831 111.003 27.2325C112.05 28.9308 112.603 30.9864 113.141 32.9464C113.69 34.9416 113.995 37.0123 114.28 39.0653C114.322 39.3748 113.695 40.0692 113.34 40.0969C111.918 40.2152 110.465 40.273 109.056 40.0919C107.932 39.9485 107.59 38.9496 107.513 37.8577C107.198 33.4672 105.71 29.517 102.924 26.143C99.8407 22.4118 95.904 20.0241 91.1364 19.3347C88.7799 18.995 86.3291 18.8466 83.9751 19.1108C82.1767 19.312 80.5048 20.487 78.7039 20.8971C76.0919 21.4934 74.6755 23.6497 72.82 25.1945C71.3094 26.4525 69.7814 27.937 68.933 29.6604C68.4543 30.6316 67.5811 31.7009 67.5265 32.5413C67.4323 33.9754 66.8866 35.1781 66.6236 36.4965C66.5641 36.7934 67.2512 37.4601 67.7101 37.6161C72.1825 39.1584 75.8835 41.8783 78.8279 45.529C80.6189 47.7507 82.2833 50.1686 82.9307 53.0972C83.3202 54.8584 83.7766 56.602 84.176 58.3607C84.3273 59.0275 84.5505 59.7345 84.4563 60.3786C84.4067 60.7182 83.7518 61.1913 83.3524 61.2114C82.1221 61.2743 80.8595 60.9749 79.6539 61.1359C78.2673 61.3246 77.8407 60.5623 77.7514 59.5206C77.347 54.8207 75.6354 50.7724 72.1701 47.5594C69.1488 44.7591 65.5272 43.3929 61.4914 43.1413C60.0427 43.0507 58.5718 43.0834 57.1306 43.2495C56.2525 43.3501 55.4314 43.9037 54.5533 44.0974C51.8693 44.6861 50.4058 47.2147 48.0145 48.2589C47.8285 48.3394 47.7243 48.6212 47.5854 48.8124C46.8487 49.8138 46.1368 50.8353 45.3653 51.809C44.8494 52.4581 43.9316 52.8783 44.3508 53.9828C44.3954 54.0986 44.2863 54.3829 44.1821 54.4282C42.7607 55.0446 43.6265 56.6398 42.8476 57.6286C42.4432 58.1418 43.0361 59.3646 42.7707 60.1194C42.3763 61.2441 42.7161 62.2329 42.7905 63.2947C42.9741 65.9239 43.9539 68.221 45.2512 70.4553C47.6549 74.5966 51.2814 76.9818 55.7638 78.1216C57.1107 78.4638 58.537 78.6172 59.9261 78.6223C73.1797 78.66 86.4358 78.6298 99.6893 78.6701C101.026 78.6751 101.761 78.494 101.634 76.8636C101.483 74.9514 101.679 73.0141 101.567 71.0943C101.21 64.8772 105.166 60.5119 111.283 60.4968C116.485 60.4843 121.689 60.4742 126.891 60.5396C128.102 60.5547 128.57 60.2503 128.528 58.9344C128.436 56.0485 128.404 53.15 128.538 50.2667C128.605 48.8401 128.062 48.1079 126.941 47.3934C121.811 44.115 121.032 37.2764 125.219 32.8533C129.106 28.7471 136.642 29.6982 139.338 34.695C140.055 36.021 140.881 37.4828 140.956 38.9169C141.035 40.4466 141.549 42.3135 140.016 43.6093C139.892 43.7124 139.693 43.8911 139.718 43.9842C140.219 45.8938 138.48 46.397 137.597 47.4085C137.351 47.6903 136.813 47.7179 136.401 47.8412C135.585 48.0828 134.856 48.201 135.079 49.4917C135.288 50.6944 135.017 51.9776 135.01 53.2255C135.002 54.481 135.062 55.7365 135.092 56.9895C135.107 57.6713 135.337 58.4513 135.092 59.0174C134.608 60.1345 135.245 60.4264 136 60.4767C137.396 60.5723 138.81 60.5572 140.207 60.4515C140.586 60.4239 141.072 59.9936 141.273 59.6187C143.022 56.3731 145.639 54.4785 149.325 54.481C153.175 54.481 156.082 56.4259 157.806 59.7974C158.672 61.4881 159.101 63.4104 158.816 65.5616C158.654 66.7844 157.563 67.509 157.662 68.1808C157.908 69.8414 156.814 70.5156 155.951 71.1799C154.279 72.4631 152.391 73.1902 150.149 73.2178C146.113 73.2657 143.555 71.1874 141.467 68.0072C141.144 67.514 140.147 67.2649 139.462 67.2624C133.291 67.2574 127.122 67.3706 120.95 67.3731C117.711 67.3731 114.471 67.2121 111.231 67.1467C109.815 67.119 108.25 69.2929 108.349 70.8125C108.428 72.0303 108.18 73.2657 108.118 74.496C108.064 75.6257 107.915 76.7881 108.123 77.875C108.193 78.2323 109.244 78.6047 109.852 78.6097C115.922 78.6651 121.992 78.655 128.062 78.6399C130.942 78.6323 133.45 79.601 135.379 81.7447C137.009 83.5512 137.952 85.7049 137.934 88.2612C137.917 90.5256 138.175 92.7925 138.182 95.0595C138.19 97.2912 137.984 99.5229 137.969 101.755C137.957 103.521 138.14 105.287 138.145 107.056C138.153 109.293 138.039 111.529 138.039 113.766C138.039 115.583 138.175 117.399 138.163 119.216C138.153 120.964 137.977 122.711 137.969 124.457C137.959 126.19 138.118 127.924 138.108 129.657C138.098 131.454 137.895 133.253 137.927 135.049C137.947 136.116 137.954 137.422 138.532 138.169C139.041 138.826 140.316 138.954 141.286 139.14C142.915 139.452 143.942 138.909 144.932 137.291C148.477 131.476 156.886 131.879 160.391 137.799C161.785 140.154 162.157 142.673 161.75 145.239C161.544 146.537 160.808 147.939 159.905 148.9C155.561 153.532 148.37 152.908 144.935 147.242C144.218 146.057 143.389 145.858 142.325 145.961C135.856 146.593 131.319 140.766 131.396 135.288C131.616 119.752 131.465 104.213 131.455 88.6738C131.453 86.4446 130.756 85.4181 129.101 85.3778C127.464 85.3375 125.822 85.4482 124.182 85.4659C122.352 85.491 120.518 85.4759 118.653 85.4759ZM113.585 158.212C113.59 158.212 113.593 158.212 113.598 158.212C113.598 156.41 113.628 154.611 113.575 152.812C113.563 152.405 113.265 152.002 113.097 151.6C112.762 151.793 112.402 151.954 112.1 152.191C111.229 152.875 110.457 153.736 109.505 154.259C108.143 155.006 106.64 155.487 105.221 156.138C103.996 156.7 102.852 157.474 101.589 157.912C99.7762 158.539 97.8885 158.936 96.0355 159.447C95.2764 159.658 94.5323 159.92 93.7807 160.149C92.8455 160.436 91.9227 160.798 90.9677 160.979C89.4546 161.264 87.9117 161.372 86.3986 161.649C84.2951 162.034 82.2238 162.627 80.1104 162.909C76.8906 163.339 73.6535 163.656 70.4139 163.873C67.3207 164.082 64.2175 164.152 61.1168 164.187C58.666 164.215 56.2078 164.197 53.7645 164.029C49.6195 163.742 45.4422 163.586 41.3568 162.894C35.7706 161.948 30.2315 160.66 24.7197 159.319C18.5605 157.822 12.7635 155.396 7.594 151.589C7.41044 151.454 7.08549 151.444 6.84983 151.491C6.74317 151.514 6.61914 151.826 6.62659 152C6.71837 153.743 6.87464 155.484 6.93666 157.228C6.98875 158.692 6.94906 160.162 6.93666 161.628C6.93169 162.255 6.80271 162.894 6.87961 163.505C7.01604 164.585 6.99123 165.823 7.51959 166.686C9.62805 170.123 12.9842 172.047 16.4893 173.705C23.3207 176.938 30.5763 178.74 37.9782 179.87C52.5589 182.096 67.1644 182.159 81.7475 179.857C90.3054 178.506 98.6698 176.44 106.322 172.115C111.001 169.473 114.483 166.059 113.6 159.963C113.513 159.397 113.585 158.798 113.585 158.212ZM113.233 102.655C112.132 103.725 111.358 104.537 110.512 105.264C110.16 105.566 109.656 105.695 109.215 105.883C108.833 106.047 108.418 106.143 108.059 106.341C106.742 107.058 105.444 107.808 104.132 108.535C104.035 108.591 103.884 108.535 103.77 108.571C103.326 108.704 102.877 108.827 102.45 109.006C102.153 109.132 101.909 109.418 101.607 109.504C99.7514 110.035 97.8885 110.533 96.0256 111.034C95.3583 111.212 94.6761 111.338 94.0138 111.532C92.3816 112.007 90.7742 112.581 89.1247 112.974C87.4503 113.374 85.7412 113.618 84.042 113.904C82.7174 114.126 81.3928 114.355 80.0607 114.493C78.6964 114.637 77.3173 114.637 75.953 114.765C73.8941 114.961 71.8452 115.281 69.7814 115.424C68.1492 115.537 66.5021 115.442 64.8624 115.477C62.491 115.527 60.1171 115.714 57.7482 115.661C54.7368 115.593 51.7254 115.407 48.724 115.157C45.3008 114.873 41.8529 114.669 38.4843 114.05C33.8134 113.195 29.1822 112.085 24.5783 110.905C18.5059 109.348 12.7659 106.965 7.62873 103.242C7.43029 103.098 7.13014 103.101 6.87712 103.038C6.82007 103.289 6.7134 103.541 6.71837 103.793C6.73325 104.545 6.82007 105.297 6.82504 106.049C6.83248 107.335 6.7779 108.621 6.7903 109.907C6.80767 111.605 6.80767 113.308 6.92921 114.999C7.00859 116.114 6.93417 117.533 7.55679 118.257C9.18403 120.149 10.9725 122.026 13.0314 123.385C17.536 126.354 22.6559 127.989 27.8229 129.325C40.5208 132.609 53.4445 133.552 66.5095 132.951C75.6503 132.531 84.6771 131.401 93.5103 128.892C99.1064 127.302 104.524 125.302 109.234 121.739C112.085 119.583 113.935 116.911 113.645 113.014C113.441 110.266 113.62 107.489 113.588 104.726C113.578 104.132 113.392 103.543 113.233 102.655ZM59.8889 157.027C62.9003 157.027 65.9167 157.152 68.9181 157.004C78.8552 156.508 88.6286 154.971 98.0571 151.66C102.552 150.08 106.903 148.138 110.524 144.867C112.147 143.402 113.439 141.676 113.513 139.414C113.632 135.776 113.573 132.131 113.541 128.487C113.538 128.138 113.191 127.793 113.002 127.446C112.702 127.612 112.39 127.76 112.107 127.951C110.361 129.121 108.644 130.342 106.868 131.461C106.129 131.927 105.263 132.186 104.452 132.533C104.266 132.614 104.07 132.666 103.879 132.729C102.659 133.142 101.431 133.537 100.215 133.967C99.0766 134.372 97.9728 134.906 96.8119 135.223C95.2144 135.658 93.5698 135.912 91.9599 136.3C90.4121 136.674 88.8965 137.205 87.3362 137.515C85.0243 137.973 82.6951 138.353 80.3584 138.662C77.5777 139.032 74.7896 139.452 71.994 139.565C67.152 139.762 62.2951 139.938 57.4605 139.752C51.8718 139.535 46.293 138.984 40.7192 138.461C35.2844 137.95 29.9934 136.73 24.7346 135.208C18.9748 133.54 13.4853 131.376 8.45227 128.065C7.12518 127.192 7.11774 127.207 6.90193 128.568C6.88953 128.641 6.77046 128.704 6.77046 128.772C6.74318 130.012 6.71589 131.252 6.70845 132.493C6.70101 133.811 6.72333 135.13 6.71589 136.448C6.71093 137.643 6.51497 138.866 6.70845 140.026C7.12022 142.502 8.59118 144.351 10.5211 145.866C14.9166 149.312 20.0067 151.26 25.253 152.812C36.5569 156.151 48.1584 157.273 59.8889 157.027ZM98.7939 85.4332C99.0816 85.803 99.1635 85.9414 99.2751 86.0471C100.84 87.5265 102.177 88.9682 102.215 91.4817C102.229 92.4352 101.592 92.7674 101.575 93.4819C101.545 94.8154 99.7439 96.9113 98.5483 97.3088C97.1617 97.7692 95.837 98.4234 94.4727 98.9543C93.1804 99.455 91.888 99.9833 90.5535 100.348C89.1644 100.726 87.7256 100.912 86.3117 101.199C84.7019 101.526 83.1093 101.953 81.4871 102.182C79.6316 102.444 77.7489 102.509 75.8835 102.706C73.9412 102.909 72.0114 103.264 70.0641 103.38C67.8242 103.513 65.5719 103.483 63.327 103.471C59.0927 103.448 54.841 103.604 50.6266 103.287C45.4546 102.899 40.2777 102.303 35.1653 101.428C30.2935 100.595 25.4812 99.3895 21.3362 96.3502C17.6675 93.6606 17.0623 89.5418 20.1307 86.4949C21.0807 85.5514 22.3185 84.8444 23.5241 84.233C28.319 81.8 33.5207 80.859 38.7695 80.1243C40.5878 79.8702 42.406 79.6161 44.4202 79.3343C43.1155 77.8423 42.0067 76.5088 40.811 75.2609C40.5059 74.9413 39.8808 74.6872 39.4691 74.7652C37.3755 75.1627 35.3042 75.6911 33.2206 76.149C32.402 76.3302 31.566 76.4333 30.745 76.6044C29.7651 76.8082 28.7779 76.9994 27.8179 77.2812C26.7885 77.5832 25.7938 78.0084 24.7693 78.3405C22.8915 78.9494 20.9542 79.4048 19.1335 80.1545C17.6849 80.7508 16.3925 81.7296 14.9935 82.4617C14.4726 82.7335 13.6763 82.6127 13.2869 82.9775C11.2925 84.8545 9.30558 86.7566 7.50719 88.8197C6.92922 89.4814 6.62659 90.6967 6.72581 91.5999C6.93417 93.5247 7.8743 95.306 9.43209 96.3955C12.1979 98.3328 15.0084 100.3 18.0446 101.724C24.3402 104.678 31.1022 106.17 37.9261 107.247C46.7519 108.638 55.6422 109.106 64.5772 108.812C71.8526 108.571 79.0685 107.871 86.2125 106.452C92.8827 105.126 99.3718 103.229 105.422 100.003C108.26 98.4888 110.936 96.7276 112.643 93.8694C114.922 90.0475 112.511 85.4633 108.25 85.4357C105.196 85.4181 102.145 85.4332 98.7939 85.4332Z" fill="black"/>
</svg>
