<svg width="52" height="52" viewBox="0 0 52 52" fill="none" xmlns="http://www.w3.org/2000/svg">
<path d="M31.6092 19.6335C32.3813 19.8543 33.0196 20.2553 33.5285 20.8597C34.1287 21.5734 34.4472 22.3986 34.4495 23.3331C34.4564 26.8038 34.4645 30.2733 34.4472 33.7439C34.4368 35.9116 32.7299 37.5563 30.5186 37.561C27.7349 37.5668 24.95 37.5644 22.1663 37.561C21.4531 37.5598 20.7364 37.59 20.0289 37.5249C18.0739 37.3471 16.5931 35.7524 16.5804 33.78C16.5562 30.2837 16.5458 26.7875 16.5851 23.2913C16.6047 21.5931 17.4853 20.4122 19.0352 19.7532C19.2107 19.6788 19.2568 19.5974 19.2568 19.4184C19.2591 18.2677 19.221 17.1136 19.2972 15.9675C19.4796 13.2349 21.6043 10.901 24.2807 10.4175C27.6657 9.80495 30.8187 11.9587 31.4892 15.3562C31.5735 15.7862 31.5977 16.2325 31.6058 16.6719C31.6208 17.6482 31.6092 18.6257 31.6092 19.6335ZM30.0604 19.3801C30.0604 18.3596 30.0904 17.3577 30.0547 16.3569C29.9646 13.8916 28.0038 11.9854 25.5606 11.9529C23.1877 11.9215 21.1738 13.7301 20.9961 16.1035C20.928 17.0078 20.9672 17.9191 20.958 18.828C20.9557 19.0081 20.958 19.1871 20.958 19.3801C23.9991 19.3801 27.0124 19.3801 30.0604 19.3801ZM25.4867 33.3057C25.8387 33.3057 26.1907 33.3069 26.5427 33.3057C27.4325 33.3034 27.8815 32.7269 27.6726 31.8575C27.3748 30.615 27.0805 29.3725 26.7805 28.13C26.7458 27.9847 26.7504 27.8894 26.8912 27.7824C28.035 26.9142 28.095 25.2102 27.024 24.2513C26.088 23.4133 24.6869 23.5365 23.8017 24.5338C22.9904 25.4497 23.0873 26.8328 24.0475 27.6871C24.2483 27.865 24.2749 28.0079 24.2126 28.2543C23.9079 29.4678 23.624 30.6871 23.3366 31.9052C23.1473 32.7071 23.6124 33.2999 24.4295 33.3034C24.7827 33.3069 25.1347 33.3057 25.4867 33.3057Z" fill="#FEFEFE"/>
<path d="M17.6465 18.1504C17.021 17.2298 16.3839 16.3162 15.778 15.3829C15.6557 15.1946 15.6049 14.9273 15.6038 14.6948C15.5911 12.3318 15.5934 9.96886 15.6015 7.60588C15.6026 7.37458 15.5507 7.26648 15.3152 7.18745C13.7468 6.6586 12.7139 5.18943 12.7554 3.58195C12.7958 1.98378 13.8703 0.583189 15.3902 0.144997C17.3211 -0.41175 19.3361 0.683148 19.9109 2.60096C20.4949 4.54667 19.4389 6.57607 17.5103 7.1921C17.298 7.25951 17.2207 7.3432 17.2218 7.58031C17.2334 9.76197 17.2357 11.9425 17.2218 14.1241C17.2195 14.4972 17.2772 14.8215 17.5357 15.0958C17.7366 15.3085 17.7769 15.5468 17.755 15.8467C17.7065 16.5185 17.7204 17.195 17.7089 17.8703C17.7077 17.9609 17.7089 18.0527 17.7089 18.1434C17.6881 18.1446 17.6673 18.1469 17.6465 18.1504ZM14.3873 3.67029C14.3827 4.81633 15.2621 5.72061 16.3932 5.72991C17.5346 5.74037 18.4406 4.83376 18.4394 3.68308C18.4394 2.54052 17.5496 1.63973 16.4186 1.63624C15.2864 1.63392 14.3931 2.52774 14.3873 3.67029Z" fill="#FEFEFE"/>
<path d="M33.7488 18.7815C33.3206 18.7071 33.2871 18.4305 33.3102 18.1004C33.3344 17.7645 33.234 17.3855 33.3587 17.1019C33.4787 16.8276 33.8169 16.651 34.0604 16.4324C34.941 15.6456 35.8238 14.8622 36.6998 14.0706C36.8048 13.9753 36.9029 13.8556 36.9595 13.7277C37.4777 12.5515 37.982 11.3682 38.5037 10.1932C38.5799 10.0211 38.5452 9.94674 38.4114 9.834C37.1684 8.78327 36.7806 7.02817 37.4477 5.52066C38.1136 4.0143 39.6555 3.17511 41.3486 3.39711C42.8777 3.59819 44.1554 4.88139 44.3989 6.46097C44.7809 8.93088 42.6885 11.0486 40.2314 10.6709C40.0548 10.6441 40.0133 10.7243 39.9567 10.8533C39.4374 12.0482 38.9192 13.2442 38.3871 14.4333C38.2983 14.632 38.169 14.8308 38.0097 14.9749C36.6225 16.229 35.2249 17.4715 33.8295 18.7164C33.7984 18.7466 33.7626 18.771 33.7488 18.7815ZM42.812 6.9782C42.8189 5.82053 41.9268 4.91044 40.7877 4.90928C39.6601 4.90812 38.7599 5.80891 38.7518 6.94681C38.7437 8.07774 39.6416 8.99248 40.7692 9.00294C41.8979 9.01224 42.8062 8.11261 42.812 6.9782Z" fill="#FEFEFE"/>
<path d="M36.1793 24.1327C36.1505 23.5795 36.1228 23.0634 36.0939 22.5032C36.184 22.5032 36.2821 22.5032 36.3801 22.5032C37.6947 22.5032 39.0092 22.5055 40.3237 22.4997C40.4253 22.4997 40.5569 22.4729 40.6238 22.4067C41.5967 21.4408 42.5604 20.4668 43.4975 19.523C43.276 19.0929 43.014 18.7024 42.8628 18.2712C42.1138 16.1407 43.4802 13.8474 45.6938 13.479C47.6962 13.1454 49.4966 14.324 49.9525 16.2685C50.5272 18.7187 48.5064 21.0352 46.0193 20.762C45.6903 20.726 45.3626 20.6388 45.0475 20.5354C44.879 20.4796 44.789 20.5075 44.6724 20.626C43.6683 21.6465 42.6493 22.6508 41.6567 23.6817C41.3382 24.013 41.0024 24.1501 40.5442 24.142C39.1869 24.1176 37.8297 24.1327 36.4725 24.1327C36.3778 24.1327 36.2844 24.1327 36.1793 24.1327ZM46.3055 19.1406C47.448 19.1417 48.3344 18.2537 48.3344 17.1042C48.3356 15.9547 47.4504 15.0597 46.3124 15.0574C45.1756 15.0562 44.2846 15.9512 44.28 17.0972C44.2754 18.2398 45.1675 19.1394 46.3055 19.1406Z" fill="#FEFEFE"/>
<path d="M36.0778 29.2969C36.0778 28.7309 36.0778 28.2137 36.0778 27.6639C38.9757 27.6639 41.8633 27.6639 44.7578 27.6639C44.9252 26.6852 45.366 25.8983 46.1277 25.3056C47.3245 24.3745 48.9968 24.2932 50.2837 25.1045C51.5797 25.9204 52.2399 27.4849 51.9202 28.9843C51.5959 30.5127 50.3922 31.6529 48.8768 31.868C47.1987 32.1062 45.5876 31.152 44.9355 29.5178C44.864 29.3399 44.7774 29.2935 44.5997 29.2935C41.8679 29.2981 39.1361 29.2969 36.4055 29.2969C36.3051 29.2969 36.2047 29.2969 36.0778 29.2969ZM48.3298 26.1889C47.1884 26.1936 46.3112 27.0862 46.3147 28.2392C46.317 29.3829 47.2149 30.2768 48.3529 30.2686C49.492 30.2605 50.3829 29.3562 50.3725 28.216C50.3622 27.0699 49.47 26.1843 48.3298 26.1889Z" fill="#FEFEFE"/>
<path d="M36.0547 34.5249C36.0547 33.9623 36.0547 33.4451 36.0547 32.8953C36.1839 32.8953 36.2751 32.8953 36.3663 32.8953C37.7928 32.8953 39.2193 32.9 40.6457 32.8918C40.9758 32.8895 41.2239 32.9848 41.4628 33.2324C42.3042 34.1099 43.1732 34.9607 44.0238 35.8302C44.16 35.9696 44.2454 35.972 44.407 35.8639C45.6465 35.0316 47.2969 35.0723 48.5248 35.9499C49.7551 36.8297 50.3114 38.3942 49.9282 39.9006C49.5647 41.3302 48.3206 42.4251 46.8583 42.6029C44.0261 42.947 41.921 40.1168 43.0428 37.4644C43.119 37.2854 43.1074 37.1831 42.9678 37.0448C42.2015 36.2869 41.4421 35.5221 40.6896 34.7504C40.5338 34.59 40.378 34.5191 40.1518 34.5214C38.8719 34.5318 37.5908 34.526 36.3109 34.526C36.2163 34.5249 36.1239 34.5249 36.0547 34.5249ZM44.3597 38.9358C44.355 40.0738 45.246 40.985 46.3736 40.9943C47.5092 41.0036 48.4256 40.0877 48.4244 38.9451C48.4233 37.8107 47.5208 36.903 46.3955 36.9006C45.2656 36.8983 44.3643 37.8003 44.3597 38.9358Z" fill="#FEFEFE"/>
<path d="M14.8849 22.5031C14.8849 23.061 14.8849 23.5771 14.8849 24.1164C14.7672 24.1234 14.6852 24.1327 14.6033 24.1327C13.4953 24.1338 12.3863 24.128 11.2783 24.1373C10.9448 24.1397 10.6874 24.0234 10.4543 23.7875C9.42019 22.7356 8.37572 21.6965 7.34395 20.6423C7.19969 20.4946 7.08543 20.476 6.89847 20.5446C4.74606 21.3327 2.49786 20.0344 2.15739 17.7539C1.81232 15.4421 3.33689 13.7869 5.11883 13.4813C7.18122 13.1267 9.06127 14.4704 9.3798 16.5172C9.5356 17.5203 9.30824 18.4408 8.70349 19.2603C8.65271 19.3288 8.60078 19.3963 8.49575 19.5334C8.8039 19.8205 9.12359 20.0971 9.42019 20.397C10.033 21.0165 10.6378 21.643 11.2345 22.2765C11.3868 22.438 11.5391 22.5136 11.7676 22.5101C12.7209 22.4961 13.6754 22.5043 14.6287 22.5043C14.7222 22.5031 14.8145 22.5031 14.8849 22.5031ZM5.66934 19.1406C6.81537 19.1475 7.70173 18.2723 7.71789 17.1205C7.73404 15.9802 6.8523 15.0748 5.70858 15.0585C4.57525 15.0422 3.67274 15.9349 3.6635 17.0809C3.65542 18.2351 4.53139 19.1336 5.66934 19.1406Z" fill="#FEFEFE"/>
<path d="M22.0959 39.1291C22.6545 39.1291 23.1761 39.1291 23.7151 39.1291C23.7197 39.2256 23.7266 39.3093 23.7266 39.3941C23.7266 41.2201 23.722 43.0461 23.7313 44.8721C23.7336 45.2777 23.5847 45.5578 23.2373 45.7671C22.6926 46.0948 22.164 46.4493 21.6319 46.7899C22.4087 48.8867 21.1818 50.8696 19.6573 51.4973C17.97 52.1923 16.0587 51.6054 15.1089 50.0816C14.1487 48.5427 14.4338 46.5412 15.7852 45.3382C17.004 44.2526 19.0975 43.9539 20.7294 45.4823C21.1588 45.2022 21.6008 44.9244 22.0278 44.6257C22.0867 44.5838 22.0936 44.4409 22.0947 44.3444C22.0982 42.709 22.0982 41.0725 22.0982 39.4371C22.0959 39.3453 22.0959 39.2523 22.0959 39.1291ZM16.0934 48.1847C16.0899 49.3307 16.974 50.2315 18.1084 50.2385C19.2395 50.2454 20.1881 49.2958 20.2008 48.1417C20.2124 47.1084 19.2187 46.1529 18.1234 46.1448C16.9947 46.1378 16.0968 47.0398 16.0934 48.1847Z" fill="#FEFEFE"/>
<path d="M7.2459 27.6568C9.81033 27.6568 12.3667 27.6568 14.9392 27.6568C14.9392 28.2019 14.9392 28.7261 14.9392 29.2957C14.8319 29.2957 14.7245 29.2957 14.616 29.2957C12.219 29.2957 9.82303 29.298 7.42595 29.2922C7.22975 29.2922 7.1328 29.3352 7.05547 29.5398C6.39071 31.2879 4.59492 32.2328 2.78412 31.8051C1.03911 31.3925 -0.138078 29.7304 0.0131102 27.8916C0.163144 26.0796 1.6254 24.665 3.46966 24.5476C5.20775 24.4372 6.80619 25.6611 7.18243 27.3918C7.20089 27.4743 7.22167 27.5568 7.2459 27.6568ZM3.65778 26.1888C2.52099 26.1876 1.62424 27.0884 1.6254 28.2287C1.62655 29.3724 2.52099 30.2708 3.65663 30.2697C4.79689 30.2697 5.68324 29.3759 5.68324 28.2287C5.6844 27.0791 4.80151 26.19 3.65778 26.1888Z" fill="#FEFEFE"/>
<path d="M7.77093 36.0336C7.82287 35.9534 7.86442 35.8616 7.9302 35.7953C8.78424 34.9306 9.64521 34.0716 10.4958 33.2034C10.7093 32.986 10.9447 32.8872 11.2517 32.8907C12.3597 32.9023 13.4676 32.8954 14.5767 32.8954C14.661 32.8954 14.7464 32.8954 14.841 32.8954C14.871 33.4335 14.8999 33.9566 14.931 34.5121C14.8422 34.5156 14.7429 34.5238 14.6436 34.5238C13.6904 34.5249 12.7359 34.5307 11.7826 34.5191C11.5599 34.5168 11.4006 34.5761 11.2425 34.7388C10.5154 35.4873 9.7837 36.2312 9.03583 36.9576C8.83387 37.1541 8.79693 37.2994 8.90542 37.5702C9.66944 39.481 8.78655 41.6139 6.89958 42.3531C5.49965 42.9017 4.17704 42.6855 3.06333 41.6592C1.93345 40.6178 1.59415 39.2904 2.05233 37.8259C2.50589 36.3765 3.54459 35.5315 5.03454 35.3037C5.91975 35.1677 6.75993 35.356 7.51703 35.8616C7.56665 35.8953 7.61628 35.929 7.66706 35.9604C7.68091 35.9697 7.69823 35.9732 7.71438 35.979C7.734 35.9976 7.75247 36.015 7.77093 36.0336ZM7.63821 38.9568C7.64514 37.8201 6.75186 36.9088 5.62429 36.9007C4.49442 36.8926 3.5896 37.7864 3.5746 38.9231C3.56075 40.054 4.45518 40.9792 5.57813 40.9932C6.71839 41.0083 7.63129 40.1063 7.63821 38.9568Z" fill="#FEFEFE"/>
<path d="M27.2213 39.1999C27.7707 39.1999 28.2831 39.1999 28.8267 39.1999C28.8313 39.2917 28.8394 39.3824 28.8394 39.473C28.8405 40.2611 28.8347 41.048 28.8463 41.8348C28.8474 41.9325 28.9098 42.0789 28.9871 42.1196C29.848 42.5671 30.7182 42.9995 31.5769 43.4307C31.8204 43.211 32.0385 42.9751 32.2948 42.7903C33.4616 41.9522 34.723 41.8011 36.0191 42.4148C37.3059 43.0239 38.0111 44.0839 38.1011 45.5182C38.2176 47.3779 36.7473 49.1156 34.9227 49.3062C32.8914 49.5177 31.113 48.1892 30.8487 46.2377C30.7956 45.8483 30.8152 45.445 30.8371 45.0498C30.8464 44.8859 30.8221 44.8046 30.6721 44.7325C29.743 44.285 28.8255 43.8143 27.8907 43.3807C27.4071 43.1576 27.1948 42.8356 27.2144 42.2893C27.2467 41.356 27.2236 40.4203 27.2236 39.4858C27.2213 39.401 27.2213 39.3161 27.2213 39.1999ZM36.4738 45.7507C36.4784 44.5988 35.599 43.7004 34.461 43.6957C33.3196 43.6911 32.4286 44.5756 32.4183 45.7239C32.4079 46.8619 33.3 47.7731 34.4345 47.7836C35.5643 47.7952 36.4692 46.8932 36.4738 45.7507Z" fill="#FEFEFE"/>
</svg>
