<svg width="516" height="881" viewBox="0 0 516 881" fill="none" xmlns="http://www.w3.org/2000/svg">
<path d="M689.997 365.941C684.86 368.907 679.581 371.691 674.622 374.889C668.543 378.816 662.998 383.522 656.723 387.134C639.109 397.241 621.299 407.034 603.453 416.76C598.423 419.494 592.504 420.985 587.865 424.167C585.359 425.873 583.528 429.999 583.688 432.915C583.777 434.489 588.914 437.306 591.42 437.008C602.369 435.749 613.211 433.561 624.942 432.932C605.995 442.26 587.279 452.086 567.976 460.735C557.809 465.292 546.415 467.429 535.893 471.39C533.049 472.467 531.325 476.162 529.103 478.664C531.982 480.768 534.666 484.347 537.777 484.695C545.473 485.573 553.383 484.977 559.55 484.977C542.878 494.686 522.491 500.469 501.428 504.23C487.155 506.782 486.533 507.461 494.407 518.613C494.585 518.861 493.109 520.783 492.274 520.849C485.555 521.496 478.73 521.512 472.1 522.556C469.274 523.003 464.901 525.207 464.653 527.03C464.315 529.399 466.679 533.161 469.078 534.652C481.609 542.406 494.94 549.051 507.169 557.186C517.354 563.947 526.277 572.314 535.946 579.787C543.838 585.901 552.138 591.551 559.959 597.732C563.745 600.731 566.838 604.492 570.197 607.938C596.077 634.383 616.535 663.943 629.386 697.844C630.559 700.926 631.235 704.191 631.91 707.405C632.746 711.431 633.314 715.524 634.008 719.584C631.039 716.319 628.373 712.757 625.049 709.857C614.189 700.38 603.24 690.968 591.935 681.971C590.282 680.662 585.714 680.712 583.884 681.938C582.231 683.065 581.591 686.759 582 689.096C587.652 721.323 588.914 753.501 580.258 785.414C575.53 802.845 569.699 820.028 564.296 837.293C563.923 838.519 562.945 839.58 562.145 840.872C558.359 821.138 555.285 801.702 550.699 782.597C548.104 771.744 543.393 761.272 538.754 750.966C537.67 748.547 533.173 746.774 529.938 746.211C528.765 746.012 525.548 750.105 525.246 752.457C521.513 781.586 509.409 807.982 494.3 833.184C484.791 849.074 473.575 864.069 463.088 879.462C462.484 880.341 461.631 881.07 462.449 880.191C463.995 859.115 465.701 836.498 467.337 813.88C467.852 806.805 468.972 799.664 468.261 792.688C467.976 789.822 463.568 787.336 461.044 784.668C458.503 786.922 455.161 788.778 453.579 791.512C441.261 812.754 427.522 833.018 408.414 849.604C403.828 853.597 398.212 856.58 393.128 859.977C395.706 852.206 398.869 844.037 401.091 835.653C403.562 826.374 405.659 816.946 406.939 807.468C407.348 804.469 404.611 801.105 403.331 797.907C399.687 800.061 394.977 801.486 392.631 804.519C387.511 811.113 383.725 818.586 379.157 825.578C376.758 829.24 374.27 830.003 370.128 826.49C359.143 817.211 344.942 814.659 330.953 813.383C327.416 813.052 322.368 818.636 319.453 822.463C313.659 830.052 308.877 838.304 303.847 846.025C304.434 830.897 305.34 816.631 305.447 802.365C305.518 793.235 302.141 790.865 292.24 791.512C288.437 791.76 284.633 792.224 280.847 792.754C279.087 793.003 277.381 793.599 275.639 794.03C276.492 792.357 276.866 790.103 278.27 789.076C285.095 784.138 292.276 779.615 299.172 774.76C302.212 772.622 306.638 770.369 307.224 767.585C307.651 765.514 303.403 761.637 300.346 760.129C295.6 757.776 296.702 755.854 299.688 753.568C310.175 745.581 319.009 747.371 324.021 758.886C326.332 764.172 327.523 769.905 329.069 775.472C331.273 783.393 335.628 785.911 342.009 780.907C353.011 772.274 364.085 763.228 372.812 752.673C397.803 722.417 405.375 687.505 400.416 650.058C399.563 643.596 397.536 637.084 394.799 631.086C393.537 628.336 389.218 626.794 386.285 624.723C384.596 627.441 381.326 630.224 381.468 632.876C382.535 654.83 379.531 676.105 370.306 696.37C367.604 702.285 363.854 707.968 359.552 712.989C358.237 714.53 352.816 714.679 350.452 713.486C336.161 706.179 321.284 700.943 304.931 699.435C297.964 698.789 291.103 696.569 284.189 696.535C281.043 696.519 276.883 699.419 274.91 702.103C268.689 710.487 263.286 719.401 257.1 728.813C258.593 715.607 260.744 704.041 261.029 692.426C261.384 677.265 253.617 672.924 238.277 678.408C236.464 679.055 234.402 679.154 232.465 679.519C233.212 677.563 233.336 674.796 234.829 673.786C240.677 669.759 247.164 666.545 252.994 662.502C256.034 660.381 258.185 657.15 260.744 654.432C258.131 652.328 255.358 650.373 252.994 648.053C252.212 647.274 251.981 644.59 252.301 644.458C257.989 642.055 263.677 639.503 269.685 638.161C270.627 637.946 273.524 643.397 274.697 646.496C277.31 653.355 279.585 660.331 281.629 667.357C283.353 673.338 288.597 675.476 293.094 673.106C304.096 667.323 316.2 662.75 322.262 650.671C328.696 637.863 328.731 625.701 323.701 612.561C319.755 602.272 311.561 595.743 303.723 588.569C286.25 572.579 263.57 566.399 241.139 560.5C203.155 550.525 164.176 546.714 124.787 549.747C99.6009 551.685 74.5212 555.314 51.5922 566.101C43.5048 569.912 35.6307 574.601 28.8942 580.185C24.9305 583.465 22.1044 589.099 21.1623 594.053C20.1136 599.637 17.3231 599.654 14.7458 596.704C9.46675 590.69 1.84152 584.095 1.30829 577.318C-0.166994 558.81 -2.85097 540.766 9.60892 522.274C25.8725 498.133 46.1709 481.166 74.77 473.129C92.9888 468.009 111.972 465.292 130.511 461.083C180.457 449.717 227.861 432.683 268.369 402.411C282.162 392.105 294 379.313 305.642 366.77C319.631 351.708 328.358 333.747 334.17 314.593C335.823 309.141 339.236 305.91 345.404 304.535C366.698 299.78 388.187 295.521 409.054 289.424C429.086 283.575 448.851 276.533 467.976 268.463C503.685 253.369 539.305 237.992 574.072 221.124C601.409 207.869 627.378 192.144 654.004 177.63C665.166 171.549 676.684 166.014 687.669 159.685C700.235 152.46 712.731 145.037 724.675 136.968C755.709 115.991 786.441 94.5999 817.298 73.3744C817.778 73.043 818.222 72.6454 818.773 72.4631C821.084 71.6678 823.412 70.9221 825.741 70.1765C824.834 72.1483 824.336 74.468 822.932 76.0587C818.506 81.0461 813.583 85.6524 809.157 90.6233C806.135 94.0034 803.611 97.7647 800.856 101.36C794.742 109.314 788.823 117.416 782.406 125.154C778.692 129.628 774.159 133.505 770.035 137.697C766.392 141.392 762.783 145.104 759.211 148.848C746.538 162.137 733.989 175.525 721.209 188.731C713.068 197.148 704.59 205.267 696.271 213.536C692.752 217.015 688.646 220.163 685.962 224.14C684.256 226.675 684.682 230.453 684.149 233.684C688.077 234.065 692.485 235.656 695.845 234.529C699.968 233.121 702.99 229.127 706.883 226.824C728.07 214.364 749.701 202.533 770.515 189.56C781.535 182.7 791.205 173.935 802.829 167.224C789.836 181.689 776.274 195.74 763.957 210.686C744.049 234.827 721.244 256.285 696.733 276.251C690.317 281.47 683.758 286.839 676.346 290.584C669.805 293.897 666.108 298.388 668.828 304.121C671.938 310.649 678.941 307.236 683.652 305.281C701.906 297.708 719.894 289.54 737.988 281.636C739.819 280.841 741.756 280.277 743.658 279.648C746.378 278.753 749.115 277.924 751.852 277.063C749.844 279.366 748.155 282.017 745.791 283.923C736.975 291.031 727.448 297.427 719.094 304.966C692.77 328.677 663.833 349.14 632.639 366.902C632.141 367.184 631.732 367.714 631.217 367.864C625.014 369.653 619.113 373 623.005 379.296C624.569 381.832 632.994 382.544 637.42 381.334C654.732 376.596 671.707 370.747 688.824 365.312C689.162 365.527 689.571 365.726 689.997 365.941ZM11.7419 556.457C11.7419 560.865 11.5108 565.289 11.8485 569.68C11.9907 571.602 13.2527 573.441 14.017 575.33C15.9366 574.07 18.0518 572.994 19.7582 571.519C28.2544 564.145 36.6617 556.656 45.0868 549.2C46.9531 547.559 48.7482 545.836 50.5612 544.163C48.1794 543.036 45.7976 541.926 43.4336 540.782C41.9584 540.07 40.5009 539.324 39.0434 538.595C43.8603 535.431 50.1702 528.703 53.2096 529.814C60.8881 532.597 64.7452 528.786 69.651 525.787C77.0274 521.297 84.4394 516.823 91.638 512.101C93.931 510.593 95.6195 508.306 97.5747 506.384C94.9974 505.721 92.4201 505.026 89.825 504.396C88.2609 504.015 86.6789 503.7 85.1147 503.369C86.039 502.076 86.6612 500.303 87.9587 499.574C97.2903 494.338 106.835 489.434 116.113 484.131C118.584 482.723 120.361 480.254 122.441 478.282C119.242 477.868 115.616 476.327 112.896 477.205C92.9177 483.585 71.8372 488.307 53.5651 497.702C29.6407 509.93 10.3021 527.411 11.7419 556.457Z" fill="url(#paint0_linear_3_543)"/>
<path d="M586.411 91.9274C582.092 101.571 579.532 109.789 575 116.898C561.029 138.885 546.774 160.74 531.701 182.049C524.662 191.99 515.135 200.375 507.368 209.902C504.275 213.696 502.871 218.667 500.685 223.108C505.502 224.069 510.301 225.096 515.135 225.925C516.539 226.173 518.068 225.842 520.112 227.118C511.243 230.846 502.409 234.657 493.504 238.302C472.761 246.786 452.48 256.562 431.098 263.322C397.131 274.059 363.466 286.569 326.851 288.077C324.433 288.176 320.683 291.142 320.043 293.396C313.68 315.466 305.894 336.99 290.893 355.382C274.736 375.182 255.593 392.067 231.935 404.146C222.017 409.216 212.347 414.667 201.487 420.516C212.845 405.786 224.416 393.342 232.895 379.275C250.332 350.345 260.09 319.526 251.434 285.807C250.545 282.344 249.567 278.698 249.852 275.235C250.047 272.883 251.753 269.618 253.833 268.558C273.527 258.649 294.074 250.1 313.164 239.28C339.044 224.616 364.177 208.759 388.954 192.504C401.574 184.236 412.932 174.228 424.415 164.568C446.597 145.927 468.762 127.237 490.358 108C500.276 99.1682 508.825 89.0112 517.997 79.4506C524.271 72.9388 530.581 66.4601 536.838 59.9318C549.671 46.4939 562.664 33.1886 575.213 19.5188C581.15 13.0567 586.18 5.88216 593.378 0C582.305 23.3132 571.996 46.9744 559.909 69.8237C549.156 90.1876 536.216 109.557 524.876 129.656C523.241 132.572 525.053 137.179 525.285 140.99C529.675 140.443 535.665 141.404 538.171 139.084C553.937 124.503 568.974 109.16 586.411 91.9274Z" fill="url(#paint1_linear_3_543)"/>
<defs>
<linearGradient id="paint0_linear_3_543" x1="608.858" y1="51.1703" x2="239.172" y2="787.95" gradientUnits="userSpaceOnUse">
<stop stop-color="#292929"/>
<stop offset="0.177039" stop-color="#1B1B1B" stop-opacity="0.8"/>
<stop offset="0.374932" stop-color="#252525" stop-opacity="0.66"/>
<stop offset="1" stop-color="#3D3D3D" stop-opacity="0"/>
</linearGradient>
<linearGradient id="paint1_linear_3_543" x1="490.447" y1="-9.86219" x2="288.645" y2="357.991" gradientUnits="userSpaceOnUse">
<stop stop-color="#292929"/>
<stop offset="0.177039" stop-color="#1B1B1B" stop-opacity="0.8"/>
<stop offset="0.374932" stop-color="#252525" stop-opacity="0.66"/>
<stop offset="1" stop-color="#3D3D3D" stop-opacity="0"/>
</linearGradient>
</defs>
</svg>
