<svg width="55" height="55" viewBox="0 0 55 55" fill="none" xmlns="http://www.w3.org/2000/svg">
<path d="M16.2567 54.7339C14.9306 54.6241 13.6064 54.5159 12.2803 54.4061C8.73241 54.116 5.20837 53.7057 1.8162 52.6157C-0.0557209 52.0149 -0.226059 51.9222 0.182393 50.1215C0.581687 48.3551 1.12751 46.5922 1.85649 44.9219C2.76315 42.8483 4.43909 41.3566 6.6407 40.4314C8.71959 39.5576 10.815 38.7199 12.881 37.8204C13.5661 37.5218 13.9489 37.702 14.4068 38.2084C16.2769 40.2752 18.5975 41.5248 21.5794 41.2141C23.8177 40.9824 25.6676 39.9524 27.0853 38.3183C27.6 37.7226 28.0176 37.5132 28.8253 37.8805C30.3547 38.574 31.9281 39.1903 33.5143 39.7653C38.1281 41.4424 40.4048 44.7984 41.2547 49.1722C41.8134 52.0492 41.7877 52.0595 38.7893 52.8938C34.9759 53.9529 31.0489 54.3271 27.0999 54.5709C26.5285 54.6069 25.9588 54.679 25.3874 54.7339C22.3432 54.7339 19.3009 54.7339 16.2567 54.7339Z" fill="white"/>
<path d="M54.9589 28.2091C54.8051 28.7653 54.5505 29.167 53.8087 29.1361C53.5742 29.1258 53.2592 29.3695 53.098 29.5772C52.7628 30.0132 52.4826 30.4904 52.2262 30.9728C52.1126 31.1874 52.0851 31.45 52.0576 31.6955C52.0119 32.1075 52.1657 32.7443 51.9386 32.8937C51.2151 33.3743 50.3579 33.6816 49.541 34.03C49.4622 34.0627 49.2388 33.9391 49.1765 33.8378C48.3706 32.5555 47.05 33.2524 45.9547 33.0996C45.8668 33.0876 45.7111 33.1889 45.6653 33.2747C45.1066 34.3459 44.3667 33.8755 43.6487 33.4842C43.3098 33.2988 42.9874 33.0825 42.6724 32.861C42.2603 32.5727 42.1559 32.2499 42.3702 31.7504C42.5021 31.4431 42.4032 31.0003 42.2823 30.6587C42.1412 30.2604 41.9086 29.869 41.6266 29.5446C41.3848 29.2682 41.0404 28.9593 40.6943 28.8975C40.1301 28.7979 39.8865 28.5507 39.8737 28.0598C39.859 27.519 39.8682 26.9783 39.8792 26.4376C39.8902 25.8797 40.1191 25.5621 40.7895 25.4918C41.1137 25.4574 41.4599 25.1725 41.6907 24.9167C42.0002 24.5751 42.2694 24.1734 42.4416 23.7563C42.579 23.425 42.5589 23.0319 42.5772 22.6663C42.5882 22.4277 42.4343 22.0346 42.5387 21.971C43.3629 21.4595 44.2238 21.0012 45.0938 20.56C45.1726 20.5205 45.4345 20.6785 45.5261 20.802C46.3943 21.9676 47.6526 21.4561 48.7827 21.475C48.8889 21.4767 49.0245 21.3994 49.0977 21.3205C49.3798 21.0183 49.5483 20.4467 50.1308 20.7523C50.9367 21.1763 51.6987 21.6758 52.4423 22.1908C52.5357 22.256 52.4515 22.6182 52.3764 22.8173C52.0265 23.7477 53.1401 25.569 54.1365 25.8042C54.4534 25.8797 54.6879 26.2574 54.9589 26.496C54.9589 27.0676 54.9589 27.6392 54.9589 28.2091ZM47.3962 24.0979C45.4693 24.0704 43.9637 25.4385 43.9472 27.2289C43.9307 29.1223 45.3502 30.5265 47.3101 30.5574C49.2424 30.5883 50.8012 29.1687 50.825 27.356C50.8506 25.5158 49.3871 24.1271 47.3962 24.0979Z" fill="white"/>
<path d="M23.5172 16.2034C23.7681 17.0136 23.9824 17.647 24.1546 18.2873C24.2938 18.8023 24.1198 19.1576 23.5007 19.2709C22.061 19.5318 21.5299 20.1567 21.3943 21.7153C21.2496 23.3735 21.6141 24.0344 22.9402 24.5185C23.748 24.8137 23.9073 25.1777 23.3743 25.7888C22.6856 26.5784 22.6948 27.3766 23.2974 28.1353C23.7791 28.7413 24.3451 29.3129 24.9752 29.7815C25.5521 30.209 26.2628 30.2038 26.9551 29.8656C27.8068 29.4502 28.0798 29.6494 28.3472 30.475C28.5505 31.105 29.0029 31.6663 29.3454 32.2568C29.4187 32.2225 29.4919 32.1865 29.5652 32.1521C29.5652 32.2053 29.5872 32.2706 29.5615 32.3101C28.8032 33.5649 28.0907 34.8472 27.2629 36.0608C26.695 36.8916 26.0631 37.7293 25.2884 38.3851C22.1416 41.0423 17.9564 40.7247 15.3298 37.4461C13.7803 35.5132 12.5256 33.3331 11.423 31.1394C10.9138 30.1266 11.0841 28.8134 10.9651 27.6341C10.9486 27.4762 10.9962 27.2564 11.1079 27.1517C12.0036 26.2917 11.6886 25.1931 11.8333 24.1769C12.0054 22.9753 12.1172 21.7342 12.5293 20.5978C13.4341 18.095 15.3958 16.6771 18.1688 16.1656C20.0261 15.824 21.8449 15.8326 23.5172 16.2034Z" fill="white"/>
<path d="M34.1553 15.0877C33.9538 15.7949 34.5619 15.9855 35.0382 16.1795C35.5675 16.394 36.073 17.0549 36.7379 16.4369C37.4559 15.7692 38.0658 15.9271 38.6428 16.5966C38.8333 16.818 39.0311 17.0343 39.2326 17.2472C39.7454 17.7931 39.7784 18.3458 39.1282 18.7784C38.2985 19.3311 38.7893 19.9199 38.9853 20.5121C39.1721 21.0734 39.3755 21.6004 40.196 21.5386C40.8224 21.4923 41.0532 21.8751 41.066 22.4021C41.0752 22.7729 41.055 23.1436 41.0569 23.5127C41.0605 24.3418 40.6667 24.7383 39.7418 24.7727C38.575 24.8173 37.7545 26.4343 38.4432 27.3046C38.8937 27.8745 38.8681 28.3432 38.3131 28.7929C37.9468 29.0916 37.5768 29.3869 37.1812 29.6495C36.6921 29.9739 36.2086 29.9791 35.8331 29.4795C35.3862 28.8856 34.822 28.9714 34.2121 29.1877C33.5619 29.4178 32.8201 29.5379 32.8549 30.434C32.8769 31.0228 32.4702 31.2356 31.9207 31.2545C31.4958 31.2699 31.069 31.2511 30.6459 31.227C29.8272 31.1807 29.296 30.8322 29.4187 29.9928C29.5506 29.107 28.7832 29.0195 28.2355 28.726C27.7062 28.441 27.1787 28.2779 26.6786 28.7826C26.12 29.3474 25.6218 29.1585 25.1511 28.6676C24.8873 28.393 24.6126 28.1252 24.3616 27.8402C23.8854 27.2978 23.8891 26.8154 24.4386 26.2644C25.3104 25.3889 24.6639 23.7702 23.389 23.5659C22.8194 23.4749 22.5044 23.2175 22.5007 22.6699C22.4989 22.2424 22.4897 21.8133 22.5318 21.3893C22.6014 20.6649 22.9531 20.1825 23.825 20.3302C24.4935 20.4435 24.7866 20.0658 24.9587 19.5903C25.1639 19.0238 25.9148 18.502 25.1932 17.8257C24.5686 17.2403 24.7518 16.7133 25.3269 16.2207C25.5961 15.9906 25.8855 15.7812 26.1585 15.5546C26.7501 15.0568 27.3307 15.0723 27.7849 15.6782C28.1623 16.1812 28.5872 16.2001 29.1074 15.97C29.7191 15.6988 30.6368 15.8104 30.6881 14.8319C30.7302 14.0406 31.2449 13.7453 32.0398 13.7951C32.4043 13.8174 32.7724 13.8174 33.1296 13.8792C33.8256 13.9994 34.3769 14.2603 34.1553 15.0877ZM35.7671 22.6132C35.6939 20.2289 34.0198 18.7252 31.5306 18.8093C29.3858 18.8814 27.7501 20.6168 27.7978 22.7694C27.8417 24.728 29.721 26.3382 31.9226 26.3004C34.0015 26.2661 35.8258 24.5169 35.7671 22.6132Z" fill="white"/>
<path d="M37.8241 1.86129C37.0109 2.79683 37.9505 3.50235 38.3993 4.23704C38.6319 4.61813 39.2015 4.82068 39.6228 5.09877C39.6667 5.12795 39.7565 5.09705 39.7986 5.12623C40.6174 5.68927 40.2748 6.51495 40.295 7.23763C40.3096 7.71999 40.3151 8.27445 39.5422 8.41006C38.3132 8.62463 37.3552 10.3103 37.7142 11.4553C37.7802 11.6647 37.6703 12.0389 37.4963 12.1745C37.0329 12.535 36.4999 12.8182 35.9779 13.1083C35.3551 13.4534 34.802 13.4929 34.3422 12.8182C34.214 12.6311 33.8568 12.5144 33.5931 12.4921C33.0198 12.4423 32.4355 12.4372 31.864 12.4852C31.6021 12.5075 31.2523 12.6311 31.1222 12.82C30.69 13.4448 30.1826 13.4602 29.569 13.1289C29.1477 12.9024 28.7246 12.6792 28.3162 12.4337C27.7703 12.1059 27.4809 11.7231 27.9022 11.0896C28.0249 10.9043 27.981 10.5438 27.8766 10.3206C27.6586 9.8537 27.4004 9.38851 27.0615 8.99369C26.8197 8.71218 26.4461 8.41178 26.0889 8.35856C25.4607 8.26243 25.261 7.96032 25.2519 7.44191C25.2427 6.95783 25.2409 6.47375 25.2445 5.98967C25.25 5.36484 25.4845 4.97517 26.2538 4.94771C26.5175 4.93741 26.8344 4.68164 27.0139 4.45849C27.3399 4.05166 27.6202 3.60019 27.8436 3.13671C27.9682 2.88094 28.0744 2.49128 27.9535 2.28014C27.5652 1.59866 27.8729 1.20384 28.4535 0.869109C28.8418 0.645954 29.2411 0.439963 29.6386 0.23054C30.2449 -0.0870276 30.7797 -0.162557 31.1314 0.568707C31.1937 0.699168 31.4043 0.855376 31.5398 0.851943C32.6644 0.817611 33.9338 1.39953 34.8111 0.223673C34.8606 0.156726 34.9448 0.10008 35.0254 0.0691811C35.628 -0.169424 37.8113 1.17123 37.8241 1.86129ZM32.8073 9.91722C34.6463 9.91893 36.2563 8.43066 36.2544 6.72609C36.2544 4.96659 34.6627 3.45943 32.7743 3.43025C30.8731 3.40107 29.3217 4.87905 29.3364 6.70549C29.3529 8.57313 30.8053 9.9155 32.8073 9.91722Z" fill="white"/>
</svg>
